<svg width="64" height="64" viewBox="0 0 64 64" fill="none" xmlns="http://www.w3.org/2000/svg">
<path fill-rule="evenodd" clip-rule="evenodd" d="M6.21193 6.21205C5.33325 7.09073 5.33325 8.50495 5.33325 11.3334V52.6667C5.33325 55.4951 5.33325 56.9093 6.21193 57.788C7.09061 58.6667 8.50482 58.6667 11.3332 58.6667H52.6666C55.495 58.6667 56.9092 58.6667 57.7879 57.788C58.6666 56.9093 58.6666 55.4951 58.6666 52.6667V11.3334C58.6666 8.50495 58.6666 7.09073 57.7879 6.21205C56.9092 5.33337 55.495 5.33337 52.6666 5.33337H11.3333C8.50482 5.33337 7.09061 5.33337 6.21193 6.21205ZM46.1653 24.5547C46.4717 24.0952 46.3475 23.4743 45.8879 23.168C45.4284 22.8616 44.8076 22.9858 44.5012 23.4453L34.7904 38.0116L30.9983 30.4274C30.3115 29.0539 28.3972 28.9347 27.5454 30.2124L17.8345 44.7787C17.5282 45.2382 17.6524 45.8591 18.1119 46.1654C18.5714 46.4718 19.1923 46.3476 19.4986 45.8881L29.2095 31.3218L33.0015 38.906C33.6883 40.2795 35.6027 40.3987 36.4545 39.121L46.1653 24.5547Z" fill="#EEC1F6"/>
</svg>
