<svg width="40" height="40" viewBox="0 0 40 40" fill="none" xmlns="http://www.w3.org/2000/svg">
<path fill-rule="evenodd" clip-rule="evenodd" d="M5.87868 9.21193C5 10.0906 5 11.5048 5 14.3333V25.6666C5 28.495 5 29.9092 5.87868 30.7879C6.75736 31.6666 8.17157 31.6666 11 31.6666H29C31.8284 31.6666 33.2426 31.6666 34.1213 30.7879C35 29.9092 35 28.495 35 25.6666V14.3333C35 11.5048 35 10.0906 34.1213 9.21193C33.2426 8.33325 31.8284 8.33325 29 8.33325H11C8.17157 8.33325 6.75736 8.33325 5.87868 9.21193ZM10.5547 14.1679C10.0952 13.8615 9.4743 13.9857 9.16795 14.4452C8.8616 14.9047 8.98577 15.5256 9.4453 15.832L18.8906 22.1288C19.5624 22.5767 20.4376 22.5767 21.1094 22.1288L30.5547 15.832C31.0142 15.5256 31.1384 14.9047 30.8321 14.4452C30.5257 13.9857 29.9048 13.8615 29.4453 14.1679L20 20.4647L10.5547 14.1679Z" fill="#222222"/>
</svg>
