<svg width="64" height="64" viewBox="0 0 64 64" fill="none" xmlns="http://www.w3.org/2000/svg">
<path fill-rule="evenodd" clip-rule="evenodd" d="M37.0993 5.59192C37.385 5.85047 37.4278 6.27843 37.5133 7.13437L38.0731 12.7324C38.2365 14.3659 38.3182 15.1827 38.871 15.4117C39.4238 15.6407 40.0591 15.1209 41.3297 14.0813L45.6839 10.5188C46.3497 9.97407 46.6825 9.70172 47.0674 9.72091C47.4522 9.7401 47.7563 10.0442 48.3646 10.6525L53.3474 15.6353C53.9556 16.2435 54.2598 16.5476 54.279 16.9325C54.2981 17.3173 54.0258 17.6502 53.4811 18.316L49.9185 22.6702L49.9185 22.6703C48.8789 23.9408 48.3591 24.5761 48.5881 25.1289C48.8171 25.6818 49.6339 25.7634 51.2674 25.9268L56.8656 26.4866C57.7215 26.5722 58.1495 26.615 58.408 26.9007C58.6666 27.1864 58.6666 27.6165 58.6666 28.4767V35.5234C58.6666 36.3836 58.6666 36.8137 58.408 37.0994C58.1495 37.3851 57.7215 37.4279 56.8656 37.5135L51.2684 38.0732C49.6349 38.2365 48.8181 38.3182 48.5891 38.871C48.3601 39.4238 48.8799 40.0591 49.9195 41.3297L53.4812 45.6829C54.0259 46.3487 54.2983 46.6816 54.2791 47.0664C54.2599 47.4513 53.9558 47.7554 53.3475 48.3636L48.3647 53.3464C47.7565 53.9547 47.4523 54.2588 47.0675 54.278C46.6827 54.2972 46.3498 54.0248 45.684 53.4801L41.3298 49.9176C40.0592 48.878 39.4239 48.3582 38.8711 48.5872C38.3183 48.8162 38.2366 49.633 38.0733 51.2665L37.5133 56.8657C37.4278 57.7216 37.385 58.1496 37.0993 58.4082C36.8136 58.6667 36.3835 58.6667 35.5233 58.6667H28.4766C27.6164 58.6667 27.1863 58.6667 26.9006 58.4082C26.6149 58.1496 26.5721 57.7216 26.4865 56.8657L25.9267 51.2675C25.7633 49.634 25.6816 48.8172 25.1288 48.5882C24.576 48.3593 23.9407 48.8791 22.6701 49.9186L18.3157 53.4813C17.6499 54.026 17.3171 54.2984 16.9322 54.2792C16.5474 54.26 16.2433 53.9559 15.635 53.3476L10.6522 48.3648C10.044 47.7566 9.73986 47.4525 9.72066 47.0676C9.70147 46.6828 9.97383 46.3499 10.5185 45.6842L14.0812 41.3298C15.1207 40.0592 15.6405 39.4239 15.4116 38.8711C15.1826 38.3183 14.3658 38.2366 12.7323 38.0733L7.13424 37.5135C6.27831 37.4279 5.85035 37.3851 5.5918 37.0994C5.33325 36.8137 5.33325 36.3836 5.33325 35.5234L5.33325 28.4767C5.33325 27.6165 5.33325 27.1864 5.5918 26.9007C5.85035 26.615 6.27831 26.5722 7.13423 26.4866H7.13424L12.7333 25.9267C14.3668 25.7634 15.1836 25.6817 15.4126 25.1289C15.6415 24.576 15.1217 23.9407 14.0822 22.6702L10.5187 18.3147C9.97395 17.649 9.70159 17.3161 9.72078 16.9313C9.73998 16.5464 10.0441 16.2423 10.6524 15.6341L15.6351 10.6513C16.2434 10.043 16.5475 9.73889 16.9324 9.7197C17.3172 9.70051 17.6501 9.97286 18.3158 10.5176L22.6702 14.0803C23.9408 15.1198 24.5761 15.6396 25.1289 15.4106C25.6818 15.1817 25.7634 14.3649 25.9268 12.7314L26.4865 7.13437V7.13435C26.5721 6.27843 26.6149 5.85047 26.9006 5.59192C27.1863 5.33337 27.6164 5.33337 28.4766 5.33337H35.5233C36.3835 5.33337 36.8136 5.33337 37.0993 5.59192ZM31.9999 42.6667C37.891 42.6667 42.6666 37.8911 42.6666 32C42.6666 26.109 37.891 21.3334 31.9999 21.3334C26.1089 21.3334 21.3332 26.109 21.3332 32C21.3332 37.8911 26.1089 42.6667 31.9999 42.6667Z" fill="#004E70"/>
</svg>
